<?xml version="1.0" encoding="UTF-8" standalone="no"?>
<!-- Created with Inkscape (http://www.inkscape.org/) -->

<svg
   xmlns:dc="http://purl.org/dc/elements/1.1/"
   xmlns:cc="http://creativecommons.org/ns#"
   xmlns:rdf="http://www.w3.org/1999/02/22-rdf-syntax-ns#"
   xmlns:svg="http://www.w3.org/2000/svg"
   xmlns="http://www.w3.org/2000/svg"
   xmlns:sodipodi="http://sodipodi.sourceforge.net/DTD/sodipodi-0.dtd"
   xmlns:inkscape="http://www.inkscape.org/namespaces/inkscape"
   width="1010.4"
   height="1010.4002"
   id="svg2"
   sodipodi:version="0.32"
   inkscape:version="0.48.4 r9939"
   version="1.0"
   sodipodi:docname="Ajax.svg"
   inkscape:output_extension="org.inkscape.output.svg.inkscape">
  <defs
     id="defs4">
    <inkscape:perspective
       sodipodi:type="inkscape:persp3d"
       inkscape:vp_x="0 : 300.5 : 1"
       inkscape:vp_y="0 : 1000 : 0"
       inkscape:vp_z="601 : 300.5 : 1"
       inkscape:persp3d-origin="300.5 : 200.33333 : 1"
       id="perspective3380" />
    <inkscape:perspective
       id="perspective3990"
       inkscape:persp3d-origin="375 : 250 : 1"
       inkscape:vp_z="750 : 375 : 1"
       inkscape:vp_y="0 : 1000 : 0"
       inkscape:vp_x="0 : 375 : 1"
       sodipodi:type="inkscape:persp3d" />
  </defs>
  <sodipodi:namedview
     id="base"
     pagecolor="#ffffff"
     bordercolor="#666666"
     borderopacity="1.0"
     gridtolerance="10000"
     guidetolerance="10"
     objecttolerance="10"
     inkscape:pageopacity="0.0"
     inkscape:pageshadow="2"
     inkscape:zoom="0.44192573"
     inkscape:cx="653.72684"
     inkscape:cy="428.46809"
     inkscape:document-units="px"
     inkscape:current-layer="layer1"
     width="601px"
     height="601px"
     inkscape:window-width="1280"
     inkscape:window-height="1001"
     inkscape:window-x="-8"
     inkscape:window-y="-8"
     showgrid="false"
     fit-margin-top="0.2"
     fit-margin-left="0.2"
     fit-margin-right="0.2"
     fit-margin-bottom="0.2"
     inkscape:window-maximized="1"
     showguides="true"
     inkscape:guide-bbox="true" />
  <metadata
     id="metadata7">
    <rdf:RDF>
      <cc:Work
         rdf:about="">
        <dc:format>image/svg+xml</dc:format>
        <dc:type
           rdf:resource="http://purl.org/dc/dcmitype/StillImage" />
        <dc:title></dc:title>
      </cc:Work>
    </rdf:RDF>
  </metadata>
  <g
     inkscape:label="Layer 1"
     inkscape:groupmode="layer"
     id="layer1"
     transform="translate(1515.529,3241.075)">
    <rect
       style="color:#000000;fill:#000000;fill-opacity:1;fill-rule:nonzero;stroke:none;stroke-width:0.8735441;marker:none;visibility:visible;display:inline;overflow:visible"
       id="rect3653"
       width="0"
       height="27.202072"
       x="578.73834"
       y="298.1684"
       rx="249.48199"
       ry="27.202072" />
    <path
       inkscape:connector-curvature="0"
       id="path3940"
       d="m -801.1513,-2230.8749 295.8223,-295.8221 -10e-5,-418.3556 -295.822,-295.8224 -418.3557,3e-4 -295.8222,295.8221 2e-4,418.3558 295.822,295.822 z"
       style="fill:#000000;fill-opacity:1;stroke:none" />
    <path
       inkscape:connector-curvature="0"
       id="path3942"
       d="m -803.2223,-2235.875 292.8933,-292.8932 -10e-5,-414.2135 -292.8931,-292.8935 -414.2135,3e-4 -292.8933,292.8932 2e-4,414.2136 292.8931,292.8932 z"
       style="fill:#ffffff;fill-opacity:1;stroke:none" />
    <path
       style="fill:#c00f14;fill-opacity:1;stroke:none"
       d="m -1206.045,-3208.375 -276.784,276.7839 10e-5,391.432 276.7838,276.7842 391.4318,-4e-4 276.7843,-276.7837 -3e-4,-391.4321 -276.7839,-276.784 z"
       id="path3944"
       inkscape:connector-curvature="0" />
    <path
       style="font-size:250px;fill:#ffffff;stroke:none;overflow:visible;font-family:Arabic Transparent"
       d="m -800.67296,-3092.4016 -15.8691,29.2969 -32.959,-17.4968 15.2588,-29.0934 33.5693,17.2933 z m -46.7936,18.3105 -15.4622,29.5004 -32.9591,-17.0899 15.0554,-29.5003 33.3659,17.0898 z m 53.304,213.2162 -125.7324,0 0,-35.4004 108.4391,0 c -10e-5,-12.0713 -1.4242,-23.3967 -4.2724,-33.9762 -15.1911,4.8829 -26.1096,7.3243 -32.7556,7.3242 -9.9013,10e-5 -17.9715,-2.5092 -24.2106,-7.5277 -7.1886,-5.6965 -10.7829,-13.9023 -10.7829,-24.6175 0,-18.7173 3.4587,-35.1968 10.376,-49.4385 7.5955,-15.7333 17.4289,-23.6001 29.5003,-23.6002 16.5473,10e-5 29.2968,13.021 38.2487,39.0625 7.4598,21.2946 11.1897,46.3868 11.1898,75.2767 l 0,52.8971 z m -33.1624,-105.7943 c -1.899,-4.747 -4.9507,-9.6977 -9.1553,-14.8519 -5.6967,-6.7815 -11.122,-10.1723 -16.276,-10.1725 -3.6622,2e-4 -6.68,1.5599 -9.0536,4.6794 -2.3736,3.1197 -3.5604,6.714 -3.5604,10.7828 0,10.8509 5.9679,16.2762 17.9037,16.2761 6.646,1e-4 13.3598,-2.2378 20.1416,-6.7139 l 0,0 z m -119.0186,-100.9114 -16.6829,30.1106 -32.95904,-17.9036 16.8864,-29.7038 32.75554,17.4968 z m 40.4867,206.7057 -186.56424,0 c -43.1316,0 -75.1411,-4.5437 -96.0286,-13.6312 -25.3635,-10.8506 -38.0453,-29.4324 -38.0453,-55.7454 0,-10.1725 2.3736,-21.5657 7.1208,-34.1797 0.9494,-2.4413 5.7644,-13.3598 14.445,-32.7556 l 8.138,4.6794 c -9.63,19.5314 -14.445,34.112 -14.445,43.7419 0,34.9935 40.8257,52.4903 122.4772,52.4902 l 149.94314,0 c -31.87424,-8.8161 -47.81124,-21.9048 -47.81094,-39.266 -3e-4,-12.6138 4.2044,-26.1093 12.6139,-40.4866 9.49414,-16.1403 20.00574,-24.2105 31.53494,-24.2106 24.4137,10e-5 36.6207,26.8556 36.6211,80.5664 l 0,58.7972 z m -21.1589,-61.6455 c -3e-4,-25.7703 -6.036,-38.6555 -18.1071,-38.6556 -9.0877,10e-5 -13.6315,5.2898 -13.6312,15.8691 -3e-4,6.7818 2.7802,11.8002 8.3415,15.0554 3.9331,2.4415 11.732,5.0185 23.3968,7.7311 l 0,0 z"
       id="text2167"
       inkscape:connector-curvature="0" />
    <path
       style="font-size:200px;font-weight:normal;fill:#ffffff;fill-opacity:1;stroke:none;overflow:visible;font-family:Tifinaghe-Ircam Unicode"
       d="m -1255.6878,-2551.1677 c 12.5865,-13.1292 20.0192,-28.1573 22.2981,-45.0845 l -153.3198,0 c 1.736,17.1442 9.0603,32.2808 21.9725,45.4101 15.2994,15.5164 33.3115,23.1661 54.0363,22.9491 21.7012,-0.217 40.0388,-7.9753 55.0129,-23.2747 l 0,0 z m -109.0492,-109.7002 c -12.6952,13.1295 -20.0194,27.7778 -21.9725,43.9452 l 153.3198,0 c -2.0619,-16.6014 -9.4946,-31.4667 -22.2981,-44.5962 -15.4082,-15.5162 -33.7457,-23.166 -55.0129,-22.9491 -21.1589,0.2172 -39.1709,8.0839 -54.0363,23.6001 l 0,0 z m 161.2951,55.6639 c -0.4342,28.8629 -11.0408,53.4125 -31.8196,73.6489 -20.7791,20.2364 -45.9256,30.3547 -75.4392,30.3547 -29.1884,0 -54.1177,-10.1725 -74.7881,-30.5175 -20.6705,-20.3449 -31.2228,-44.8402 -31.6568,-73.4861 -0.217,-29.7307 10.064,-54.9856 30.843,-75.7647 20.7789,-20.7788 45.9795,-31.1683 75.6019,-31.1685 29.7306,2e-4 55.0941,10.4982 76.0903,31.494 20.9957,20.9962 31.3853,46.1425 31.1685,75.4392 l 0,0 z m 25.8788,1.9531 0,-16.6015 92.6104,0 0,16.6015 -92.6104,0 z m 46.5493,-117.3499 c 12.0442,3e-4 22.2981,3.9065 30.7616,11.7188 8.4635,7.8127 12.6952,17.3612 12.6953,28.6457 -10e-5,11.1764 -4.2318,20.6435 -12.6953,28.4016 -8.4635,7.7584 -18.7174,11.6375 -30.7616,11.6374 -12.1527,10e-5 -22.3524,-3.879 -30.5988,-11.6374 -8.2465,-7.7581 -12.3698,-17.2252 -12.3698,-28.4016 0,-11.2845 4.1233,-20.833 12.3698,-28.6457 8.2464,-7.8123 18.4461,-11.7185 30.5988,-11.7188 l 0,0 z m 21.3216,39.388 c -10e-5,-6.1847 -2.0346,-11.3388 -6.1035,-15.4622 -4.0691,-4.123 -9.1418,-6.1847 -15.2181,-6.1849 -5.9679,2e-4 -11.0134,2.0619 -15.1366,6.1849 -4.1233,4.1234 -6.185,9.2775 -6.1849,15.4622 -10e-5,5.968 2.0616,11.0678 6.1849,15.2993 4.1232,4.232 9.1687,6.3479 15.1366,6.3477 6.0763,2e-4 11.149,-2.1157 15.2181,-6.3477 4.0689,-4.2315 6.1034,-9.3313 6.1035,-15.2993 l 0,0 z m -21.647,99.9346 c 12.0441,0 22.2708,3.9063 30.6801,11.7186 8.4092,7.8126 12.6138,17.3612 12.6139,28.6457 -10e-5,11.1763 -4.2047,20.6435 -12.6139,28.4016 -8.4093,7.7583 -18.636,11.6374 -30.6801,11.6374 -12.1529,0 -22.3525,-3.8791 -30.5989,-11.6374 -8.2465,-7.7581 -12.3698,-17.2253 -12.3698,-28.4016 0,-11.2845 4.1233,-20.8331 12.3698,-28.6457 8.2464,-7.8123 18.446,-11.7186 30.5989,-11.7186 l 0,0 z m 21.3215,39.3878 c -10e-5,-6.1848 -2.0346,-11.3388 -6.1035,-15.4622 -4.0691,-4.1232 -9.1418,-6.1848 -15.218,-6.1849 -5.968,10e-5 -11.0135,2.0617 -15.1367,6.1849 -4.1234,4.1234 -6.185,9.2774 -6.185,15.4622 0,5.9679 2.0616,11.0677 6.185,15.2995 4.1232,4.2317 9.1687,6.3476 15.1367,6.3476 6.0762,0 11.1489,-2.1159 15.218,-6.3476 4.0689,-4.2318 6.1034,-9.3316 6.1035,-15.2995 l 0,0 z m 182.29107,-170.8979 89.19241,211.5879 -30.2734,0 -74.38126,-175.6179 -74.54402,175.6179 -30.4361,0 89.68068,-211.5879 30.76169,0 z m 235.02522,0 89.19241,211.5879 -30.2733,0 -74.38126,-175.6179 -74.54405,175.6179 -30.4361,0 89.6807,-211.5879 30.7616,0 z"
       id="text2205"
       inkscape:connector-curvature="0" />
  </g>
</svg>
